# xmcd CD database file
#
# Track frame offsets:
#	150
#	20162
#	31584
#	49213
#	63664
#	80229
#	86496
#	109457
#	130207
#	141877
#	156509
#	174536
#
# Disc length: 3377 seconds
#
# Revision: 0
# Processed by: cddbd v1.5.2PL0 Copyright (c) Steve Scherf et al.
# Submitted via: jetAudio 7
#
DISCID=ad0d2f0c
DTITLE=Moriarty - Gee Whiz But This Is A Lonesome Town
DYEAR=1900
DGENRE=Country
TTITLE0=Jimmy
TTITLE1=Lovelinesse
TTITLE2=Private Lily
TTITLE3=Motel
TTITLE4=Animals Can't Laugh
TTITLE5=(...)
TTITLE6=Cottonflower
TTITLE7=Whiteman's Ballad
TTITLE8=Tagono-Ura
TTITLE9=Fireday
TTITLE10=Oshkosh Bend
TTITLE11=Jaywalker (Song For Beryl)
EXTD=
EXTT0=
EXTT1=
EXTT2=
EXTT3=
EXTT4=
EXTT5=
EXTT6=
EXTT7=
EXTT8=
EXTT9=
EXTT10=
EXTT11=
PLAYORDER=
